HIERARCHY
ROOT Hips
{
	OFFSET -3.958830 18.904000 13.208200
	CHANNELS 6 Xposition Yposition Zposition Zrotation Yrotation Xrotation 
	JOINT LHipJoint
	{
		OFFSET 0.000000 0.000000 0.000000
		CHANNELS 3 Zrotation Yrotation Xrotation
		JOINT LeftUpLeg
		{
			OFFSET 1.800000 -1.400000 0.085000
			CHANNELS 3 Zrotation Yrotation Xrotation
			JOINT LeftLeg
			{
				OFFSET 2.215000 -6.000000 0.000000
				CHANNELS 3 Zrotation Yrotation Xrotation
				JOINT LeftFoot
				{
					OFFSET 2.500000 -6.900000 0.000000
					CHANNELS 3 Zrotation Yrotation Xrotation
					JOINT LeftToeBase
					{
						OFFSET 0.200000 -0.500000 1.950000
						CHANNELS 3 Zrotation Yrotation Xrotation
						End Site
						{
							OFFSET 0.000000 0.000000 0.000000
						}
					}
				}
			}
		}
	}
	JOINT RHipJoint
	{
		OFFSET 0.000000 0.000000 0.000000
		CHANNELS 3 Zrotation Yrotation Xrotation
		JOINT RightUpLeg
		{
			OFFSET -1.800000 -1.400000 0.085000
			CHANNELS 3 Zrotation Yrotation Xrotation
			JOINT RightLeg
			{
				OFFSET -2.215000 -6.000000 0.000000
				CHANNELS 3 Zrotation Yrotation Xrotation
				JOINT RightFoot
				{
					OFFSET -2.500000 -6.900000 0.000000
					CHANNELS 3 Zrotation Yrotation Xrotation
					JOINT RightToeBase
					{
						OFFSET -0.200000 -0.500000 1.950000
						CHANNELS 3 Zrotation Yrotation Xrotation
						End Site
						{
							OFFSET 0.000000 0.000000 0.000000
						}
					}
				}
			}
		}
	}
	JOINT LowerBack
	{
		OFFSET 0.000000 0.000000 0.000000
		CHANNELS 3 Zrotation Yrotation Xrotation
		JOINT Spine
		{
			OFFSET -0.087000 1.940000 -0.288900
			CHANNELS 3 Zrotation Yrotation Xrotation
			JOINT Spine1
			{
				OFFSET 0.000000 1.950000 0.060000
				CHANNELS 3 Zrotation Yrotation Xrotation
				JOINT Neck
				{
					OFFSET 0.000000 0.000000 0.000000
					CHANNELS 3 Zrotation Yrotation Xrotation
					JOINT Neck1
					{
						OFFSET 0.000000 1.600000 0.340000
						CHANNELS 3 Zrotation Yrotation Xrotation
						JOINT Head
						{
							OFFSET 0.000000 1.667000 -0.240000
							CHANNELS 3 Zrotation Yrotation Xrotation
							End Site
							{
								OFFSET 0.000000 0.000000 0.000000
							}
						}
					}
				}
				JOINT LeftShoulder
				{
					OFFSET 0.000000 0.000000 0.000000
					CHANNELS 3 Zrotation Yrotation Xrotation
					JOINT LeftArm
					{
						OFFSET 2.700000 1.550000 -0.730000
						CHANNELS 3 Zrotation Yrotation Xrotation
						JOINT LeftForeArm
						{
							OFFSET 5.450000 0.000000 0.000000
							CHANNELS 3 Zrotation Yrotation Xrotation
							JOINT LeftHand
							{
								OFFSET 3.450000 0.000000 0.000000
								CHANNELS 3 Zrotation Yrotation Xrotation
								JOINT LeftHandIndex1
								{
									OFFSET 0.750000 0.000000 0.000000
									CHANNELS 3 Zrotation Yrotation Xrotation
									End Site
									{
										OFFSET 0.000000 0.000000 0.000000
									}
								}
							}
						}
					}
				}
				JOINT RightShoulder
				{
					OFFSET 0.000000 0.000000 0.000000
					CHANNELS 3 Zrotation Yrotation Xrotation
					JOINT RightArm
					{
						OFFSET -2.700000 1.550000 -0.730000
						CHANNELS 3 Zrotation Yrotation Xrotation
						JOINT RightForeArm
						{
							OFFSET -5.450000 0.000000 0.000000
							CHANNELS 3 Zrotation Yrotation Xrotation
							JOINT RightHand
							{
								OFFSET -3.450000 0.000000 0.000000
								CHANNELS 3 Zrotation Yrotation Xrotation
								JOINT RightHandIndex1
								{
									OFFSET -0.750000 0.000000 0.000000
									CHANNELS 3 Zrotation Yrotation Xrotation
									End Site
									{
										OFFSET 0.000000 0.000000 0.000000
									}
								}
							}
						}
					}
				}
			}
		}
	}
}
MOTION
Frames: 12
Frame Time: 0.016667
-0.523950 17.872230 -8.628230 -2.847004 -19.243402 -4.106496 -14.687303 12.701995 2.622690 6.176525 -1.466976 -20.689930 -5.552839 7.533252 24.004175 -0.471521 4.784261 2.748130 0.250350 -0.066910 0.346580 18.723963 -11.601921 3.025241 -1.374085 0.461750 -7.584730 10.084602 -6.093017 12.430359 -0.275778 -4.096981 2.905249 -0.007640 0.289570 0.347810 -4.825596 0.722032 -6.754997 14.444895 7.440571 4.844134 -4.020603 7.462023 21.196354 1.694448 -0.755242 -13.115373 -5.259864 3.900375 53.963795 -1.127080 2.275360 -0.027100 5.994652 2.776791 6.215207 -17.127809 -1.852225 4.323226 118.577297 -54.891508 -84.444645 -3.985844 2.741540 0.384520 0.218460 -0.045090 -0.035260 -8.670553 -0.926351 9.328806 25.470587 0.613834 0.857841 -132.588652 54.527491 -108.518223 2.187755 -1.820855 -0.132870 0.037280 0.105710 -0.137360 
-0.511360 17.859720 -8.629610 -3.017624 -19.049521 -4.170061 -14.672708 12.716866 2.538640 6.238706 -1.369960 -20.108679 -4.748905 7.545298 25.228219 -0.398042 4.876671 2.749925 0.289730 0.001620 0.333180 18.741838 -11.647149 3.045097 -1.270487 0.356804 -7.364234 10.046618 -6.037474 12.087371 -0.297674 -4.133365 2.926234 0.019890 0.311890 0.351630 -4.873391 0.828115 -6.705656 14.750587 7.280658 4.376773 -4.556495 7.380778 21.138282 1.797362 -0.439077 -12.786827 -4.172246 3.583726 51.890517 -1.298460 2.662620 0.334140 6.041652 2.813263 5.980738 -19.585025 -5.102905 4.451383 119.016292 -49.661962 -78.729553 -3.975753 2.902225 0.330400 0.242100 -0.050910 0.029280 -8.945178 -1.266388 9.122223 27.815665 2.734256 1.134604 -129.529394 51.269002 -100.230331 2.158626 -1.824814 -0.103920 0.037700 0.055410 -0.105090 
-0.503160 17.848230 -8.617590 -2.901433 -19.091276 -5.059105 -14.629711 12.817929 2.435819 6.172481 -1.065910 -18.121344 -4.039106 7.968189 27.532513 -0.333137 5.346076 2.670465 0.169930 -0.142310 0.211640 18.764304 -11.726175 3.079727 -1.726970 0.163685 -6.068600 10.372482 -6.275758 12.294873 -0.269604 -4.330102 2.914414 -0.023150 0.460300 0.290150 -4.960027 0.845504 -6.699487 15.833965 6.635249 4.843866 -5.843289 7.063784 20.255744 1.550883 -1.866536 -12.700244 -6.319102 4.875414 48.070998 0.470200 2.086370 2.942650 5.975895 2.532361 6.112438 -23.846145 -7.663625 3.951020 118.849931 -41.952331 -69.702410 -4.027117 2.981958 0.308780 0.296810 -0.162070 0.055190 -8.449519 0.224276 8.855556 31.180499 7.762807 1.079553 -125.492573 44.916915 -86.821406 2.097565 -1.755904 -0.208290 0.127310 0.121710 -0.087080 
-0.491210 17.817340 -8.621340 -3.194273 -18.478525 -5.827231 -14.612744 12.814360 2.331093 6.609422 -0.849462 -16.310528 -3.875447 8.638768 30.071489 -0.240366 5.975487 2.525795 0.097170 -0.228830 0.113100 18.790833 -11.744886 3.117634 -2.080240 -0.089833 -4.569866 11.372202 -6.557011 11.810477 -0.251907 -4.617951 2.856176 -0.020800 0.620310 0.281690 -5.032277 0.934586 -6.664690 16.798690 5.913727 4.686458 -6.281912 6.350289 19.463520 1.380464 -2.694520 -11.846583 -6.861896 5.627287 43.332474 1.519900 1.748450 5.095270 4.756179 1.866377 5.693969 -27.858913 -12.487172 4.436700 119.106689 -33.570761 -59.681194 -4.127215 3.104064 0.227280 0.396910 -0.284120 0.090990 -6.895923 1.447141 7.841539 32.490260 14.043512 1.908442 -122.790996 37.457350 -73.516112 2.025407 -1.845068 -0.275770 0.179010 0.170150 -0.055400 
-0.464600 17.745830 -8.627450 -3.801072 -17.936977 -6.753335 -14.554594 12.782845 2.217703 7.238928 -0.524178 -13.956357 -3.725318 9.151108 31.807941 -0.127591 6.426926 2.432482 0.073330 -0.234890 0.030610 18.847766 -11.862115 3.176704 -1.941491 -0.409032 -3.047907 11.600660 -6.744309 11.782484 -0.267865 -4.881508 2.800158 0.000140 0.725140 0.286840 -5.202611 1.249753 -6.652680 18.978722 5.594668 5.066444 -7.389114 6.150565 18.640987 1.286664 -3.172304 -11.249806 -6.840524 5.701630 38.810531 1.844830 1.419460 6.188090 3.845133 0.423746 5.058555 -29.467618 -18.307657 5.298249 118.966445 -26.241171 -50.199609 -4.181815 3.230336 0.140450 0.470090 -0.361870 0.143970 -5.848363 3.239798 7.472898 33.828912 18.115274 1.886956 -122.760991 29.026319 -62.373467 1.981824 -2.034456 -0.291160 0.196540 0.178500 -0.010470 
-0.439110 17.690660 -8.655140 -3.934437 -18.091755 -8.866751 -14.502918 12.747136 2.101752 7.857923 -0.016595 -10.554621 -3.774906 9.741312 33.163017 -0.054429 6.826472 2.313909 0.173100 -0.103050 0.074860 18.898371 -12.010966 3.207429 -2.450891 -0.813857 -0.661982 11.475673 -7.020694 12.246297 -0.383724 -5.180075 2.688090 0.087650 0.705660 0.297410 -5.373845 1.570336 -6.604853 20.878192 5.307146 6.350957 -8.475694 6.031147 19.138145 1.226865 -3.894179 -10.483833 -7.667185 6.257075 36.464506 1.896300 1.808940 2.897680 0.868966 -2.771133 4.371716 -27.221749 -22.925955 4.766495 120.024651 -19.692041 -42.604235 -4.139475 3.284240 0.144750 0.454070 -0.332540 0.183500 -2.781892 6.774773 6.989766 32.100653 21.582512 0.672595 -123.999857 21.462868 -53.243825 1.923725 -2.157352 -0.274650 0.217270 0.131810 -0.004560 
-0.398600 17.640820 -8.698220 -4.713421 -17.943742 -10.999429 -14.453907 12.658404 1.970097 8.993433 0.215920 -6.913893 -3.730256 9.934827 33.327318 -0.217660 7.263430 2.182036 0.136290 -0.214950 0.067110 18.964830 -12.096415 3.277672 -2.752794 -1.268221 2.045889 12.236080 -7.476336 12.034695 -0.446697 -5.557326 2.522650 0.127610 0.802540 0.318470 -5.581301 1.853199 -6.558670 23.655486 4.081820 7.849403 -9.950003 5.171698 20.385903 1.198582 -5.126622 -9.831269 -9.368691 7.150247 33.784896 2.600510 1.263100 -0.250660 -2.974996 -7.703352 4.113485 -23.978086 -25.851540 2.850541 123.184097 -12.280593 -35.147873 -4.219698 3.217673 0.240600 0.494200 -0.396150 0.136840 1.259904 12.102752 6.748930 26.996001 24.032027 -2.278713 -126.824396 13.720972 -43.828387 1.799164 -2.180556 -0.411490 0.319440 0.259590 -0.068000 
-0.380370 17.604830 -8.752420 -4.710582 -18.518674 -13.270340 -14.426953 12.542720 1.870968 9.667232 0.664303 -2.962027 -3.978116 10.058127 32.259785 -0.304490 7.425048 2.154066 0.212570 -0.125120 0.118490 19.014689 -12.203062 3.292635 -3.399135 -1.587576 4.367463 12.229087 -7.735429 12.248555 -0.542826 -5.868644 2.392826 0.235910 0.843380 0.337920 -5.759625 2.168782 -6.466190 24.747621 3.382107 8.609769 -10.046874 4.462934 23.550429 1.148177 -6.022079 -9.634661 -10.558049 7.937235 32.267020 2.459970 1.440280 -3.821280 -6.668668 -14.933292 4.624644 -19.140930 -27.410134 -1.056755 128.268502 -3.745953 -25.831209 -4.250458 3.233575 0.266800 0.519600 -0.392710 0.143310 5.472334 19.733949 7.045737 20.261367 26.356061 -6.158399 -129.835421 5.978492 -33.689220 1.733010 -2.291036 -0.450110 0.409730 0.274090 -0.080580 
-0.367760 17.552920 -8.814090 -4.002418 -18.682987 -14.189445 -14.446099 12.497911 1.873359 9.283613 1.008265 -1.051825 -4.386444 10.166838 31.462832 -0.248896 7.395218 2.191947 0.347320 0.105190 0.154170 19.006804 -12.207616 3.263745 -4.202476 -1.443957 4.799351 12.677881 -7.855772 12.666054 -0.595482 -6.049108 2.329662 0.375180 0.845620 0.355240 -5.751519 2.187853 -6.457723 23.615630 3.801224 8.585465 -8.720821 4.477917 26.384918 1.260773 -5.830189 -10.313407 -9.950614 7.730238 30.987285 1.563130 1.799200 -4.560020 -8.129066 -21.818198 6.001368 -16.379890 -28.258023 -4.184124 134.698821 3.301705 -18.533586 -4.257426 3.420049 0.153070 0.562440 -0.379520 0.214320 6.976885 26.649125 7.459698 16.067798 26.892305 -10.142547 -135.575504 -3.898095 -18.617072 1.743597 -2.690833 -0.377590 0.417270 0.183230 -0.027450 
-0.339160 17.509780 -8.865670 -3.652101 -17.714290 -15.133340 -14.467505 12.495673 1.865872 9.020344 1.058721 0.450323 -4.389045 9.875060 30.517441 -0.117719 7.129367 2.284880 0.652570 0.557920 0.274980 19.006712 -12.137159 3.227212 -4.855312 -1.569772 5.451840 13.108836 -7.853535 12.525281 -0.724141 -6.194811 2.271109 0.589430 0.747940 0.396300 -5.722219 1.988139 -6.448378 22.425442 3.233062 8.365043 -8.152005 3.420627 29.284930 1.454680 -5.571511 -10.938516 -9.402031 8.396626 30.145767 1.878900 2.752120 -5.741290 -9.556021 -28.879348 7.378020 -11.847324 -28.177084 -7.813655 141.942808 9.262784 -10.429506 -4.162098 3.793023 -0.001530 0.546820 -0.282580 0.362210 8.143763 33.199435 7.271016 11.061840 28.263476 -12.810304 -140.399430 -10.642372 -4.590179 1.799626 -3.175240 -0.181800 0.343420 -0.054500 0.069520 
-0.302700 17.489110 -8.928540 -2.986591 -17.221620 -16.225964 -14.538888 12.550617 1.940120 8.408985 1.112783 2.013735 -4.723865 9.651167 29.192405 -0.274366 7.151013 2.259867 0.723890 0.638200 0.337180 18.945040 -12.033372 3.139556 -5.704843 -1.475063 5.656955 13.067494 -8.008678 13.109791 -0.747780 -6.287242 2.185068 0.698510 0.751850 0.442530 -5.522538 1.636607 -6.449037 20.143502 2.827775 9.257870 -6.879452 2.871412 31.621045 1.838881 -5.090306 -10.890296 -8.359895 7.763371 28.829499 0.057130 2.842740 -8.378730 -9.771933 -32.955496 7.894447 -10.227853 -29.447372 -8.244341 148.425373 12.047376 -8.213361 -4.190768 3.870823 0.031570 0.586070 -0.262480 0.351660 7.817000 36.985127 6.731201 9.234767 29.334506 -15.293855 -145.194900 -14.884291 5.465714 1.705033 -3.395249 -0.213580 0.393480 -0.031550 0.032190 
-0.280320 17.485560 -8.976100 -3.200725 -15.104268 -16.505080 -14.657638 12.723119 1.946210 8.461105 0.926643 2.287809 -4.002684 9.103411 28.477249 -0.310623 7.007143 2.284506 0.726880 0.635040 0.353980 18.835429 -11.840444 3.111105 -5.455764 -1.592671 5.656817 13.456145 -8.085926 12.901874 -0.728214 -6.293480 2.161039 0.696250 0.707630 0.472300 -5.125846 1.059409 -6.466535 17.860278 3.064916 9.609236 -5.278301 2.350051 32.846570 2.631969 -3.623494 -11.068019 -6.113549 5.607550 28.642893 -1.836590 2.524540 -7.848080 -10.605453 -34.713755 8.508093 -11.208274 -32.850811 -5.188661 149.618260 8.916658 -19.970408 -4.190778 3.772153 0.002230 0.603080 -0.269880 0.326710 6.980391 37.150578 7.019842 12.398097 28.779576 -16.615257 -148.397205 -16.580949 7.548030 1.639160 -3.584315 -0.186330 0.317570 -0.031640 0.011830 
